# This file uses centimeters as units for non-parametric coordinates.

mtllib amulett.mtl
g default
v 0.757711 7.559557 -0.380401
v 1.737490 7.559557 -0.380401
v 0.567306 8.513132 -0.280873
v 1.927616 8.513132 -0.280873
v 0.567306 8.513132 -1.386172
v 1.927616 8.513132 -1.386172
v 0.567306 7.388110 -1.265293
v 1.927616 7.388110 -1.265293
v 2.415561 7.299082 -1.265293
v 2.415561 7.299082 -0.382256
v 2.415561 9.006394 -1.265293
v 2.415561 9.006394 -0.382256
v 0.079361 7.299082 -1.265293
v 0.079361 7.299082 -0.382256
v 0.079361 9.006394 -0.382256
v 0.079361 9.006394 -1.265293
v 0.752376 6.959509 -1.269927
v 1.742546 6.959509 -1.269927
v 1.633875 6.959509 -0.467378
v 0.861186 6.959509 -0.467378
v 1.927616 8.816166 -0.556211
v 0.567306 8.816166 -0.556211
v 1.927616 8.816166 -1.071842
v 0.567306 8.816166 -1.071842
v 1.547363 8.674805 -1.395645
v 1.547363 7.388110 -1.673419
v 1.547363 6.959509 -1.531056
v 1.547363 6.411594 -1.221077
v 1.476077 6.551263 -0.705446
v 1.547363 8.674805 -0.271399
v 1.547363 8.816166 -0.556211
v 1.547363 8.816166 -1.071842
v 0.948115 8.674805 -1.395645
v 0.948115 7.388110 -1.673419
v 0.948115 6.959509 -1.531056
v 0.948115 6.411594 -1.221077
v 1.019401 6.551263 -0.705446
v 0.948115 8.674805 -0.271399
v 0.948115 8.816166 -0.556211
v 0.948115 8.816166 -1.071842
v 2.415561 8.466756 -1.706907
v 1.547363 8.466756 -1.704252
v 0.948115 8.466755 -1.704252
v 0.079361 8.466756 -1.706907
v -0.341381 8.466756 -1.071842
v -0.341381 8.466756 -0.556211
v 0.079361 8.466756 0.077859
v 0.948115 8.466755 0.156498
v 1.547363 8.466756 0.156498
v 2.415561 8.466756 0.077859
v 2.836303 8.466756 -0.556211
v 2.836303 8.466756 -1.071842
v 2.836303 7.758262 -1.071842
v 2.836303 7.758262 -0.556211
v 2.415561 7.758262 0.077859
v 1.927616 7.758262 -0.208301
v 1.547363 7.758262 -0.013746
v 0.948115 7.758262 -0.013746
v 0.567306 7.758262 -0.208301
v 0.079361 7.758262 0.077859
v -0.341381 7.758262 -0.556211
v -0.341381 7.758262 -1.071842
v 0.079361 7.758262 -1.706907
v 0.567306 7.758262 -1.458743
v 0.948115 7.758262 -1.704252
v 1.547363 7.758262 -1.704252
v 1.927616 7.758262 -1.458743
v 2.415561 7.758262 -1.706907
vt 0.392604 0.000000
vt 0.607448 0.000000
vt 0.375000 0.221273
vt 0.625000 0.221273
vt 0.375000 0.528727
vt 0.625000 0.528727
vt 0.375000 0.788676
vt 0.625000 0.788676
vt 0.409993 0.982611
vt 0.590058 0.982611
vt 0.836324 0.000000
vt 0.875000 0.221273
vt 0.163676 0.000000
vt 0.125000 0.221273
vt 0.659779 0.000000
vt 0.836324 0.000000
vt 0.836324 0.250000
vt 0.659779 0.250000
vt 0.163676 0.000000
vt 0.340221 0.000000
vt 0.340221 0.250000
vt 0.163676 0.250000
vt 0.375000 0.788676
vt 0.625000 0.788676
vt 0.607529 0.965221
vt 0.392496 0.965221
vt 0.625000 0.319557
vt 0.694557 0.250000
vt 0.305443 0.250000
vt 0.375000 0.319557
vt 0.625000 0.422647
vt 0.797647 0.250000
vt 0.202353 0.250000
vt 0.375000 0.422647
vt 0.555116 0.500000
vt 0.555116 0.750000
vt 0.555116 0.750000
vt 0.555116 0.827353
vt 0.555116 0.930443
vt 0.555116 0.250000
vt 0.555116 0.319557
vt 0.555116 0.422647
vt 0.444986 0.500000
vt 0.444986 0.750000
vt 0.444986 0.750000
vt 0.444986 0.827353
vt 0.444986 0.930443
vt 0.444986 0.250000
vt 0.444986 0.319557
vt 0.444986 0.422647
vt 0.875000 0.192547
vt 0.555116 0.557453
vt 0.444986 0.557453
vt 0.125000 0.192547
vt 0.202353 0.192547
vt 0.305443 0.192547
vt 0.375000 0.192547
vt 0.444986 0.192547
vt 0.555116 0.192547
vt 0.625000 0.192547
vt 0.694557 0.192547
vt 0.797647 0.192547
vt 0.797647 0.064800
vt 0.694557 0.064800
vt 0.625000 0.064800
vt 0.625000 0.064800
vt 0.555116 0.064800
vt 0.444986 0.064800
vt 0.375000 0.064800
vt 0.375000 0.064800
vt 0.305443 0.064800
vt 0.202353 0.064800
vt 0.125000 0.064800
vt 0.125000 0.064800
vt 0.375000 0.685200
vt 0.444986 0.685200
vt 0.555116 0.685200
vt 0.625000 0.685200
vt 0.875000 0.064800
vt 0.875000 0.064800
vn -0.579675 0.453273 0.677142
vn -0.321179 0.463872 0.825631
vn -0.186005 0.883637 0.429637
vn -0.171452 0.771804 0.612309
vn -0.086518 0.841474 0.533326
vn -0.044875 0.959929 0.276626
vn -0.091079 0.941224 0.325273
vn -0.514399 0.449649 -0.730212
vn -0.174501 0.816450 -0.550417
vn -0.271070 0.476969 -0.836075
vn 0.813113 0.218488 0.539547
vn 0.915747 0.282489 0.285671
vn 0.800392 0.540382 0.259538
vn -0.915747 0.282489 0.285671
vn -0.813113 0.218488 0.539547
vn -0.800392 0.540382 0.259538
vn -0.474805 0.323553 -0.818458
vn -0.409227 0.577859 -0.706125
vn -0.474805 0.323553 -0.818458
vn -0.446377 0.822365 0.352795
vn -0.465545 0.595158 0.655023
vn -0.446377 0.822365 0.352795
vn -0.519104 0.324585 0.790680
vn -0.519104 0.324585 0.790680
vn -0.445620 0.580832 0.681218
vn 0.519104 0.324585 0.790680
vn 0.445620 0.580832 0.681218
vn 0.519104 0.324585 0.790680
vn 0.465545 0.595158 0.655023
vn 0.446377 0.822365 0.352795
vn 0.446377 0.822365 0.352795
vn 0.474805 0.323553 -0.818458
vn 0.474805 0.323553 -0.818458
vn 0.409227 0.577859 -0.706125
vn -0.731725 -0.259262 -0.630366
vn -0.399194 -0.313411 -0.861636
vn -0.399194 -0.313411 -0.861636
vn -0.731725 -0.259262 -0.630366
vn -0.452196 0.831344 -0.323089
vn -0.452196 0.831344 -0.323089
vn -0.046332 0.967150 -0.249949
vn -0.093830 0.950646 -0.295751
vn 0.452196 0.831344 -0.323089
vn 0.452196 0.831344 -0.323089
vn -0.916855 0.278353 -0.286175
vn -0.804407 0.533439 -0.261481
vn 0.286416 -0.956105 0.061873
vn 0.286416 -0.956105 0.061873
vn 0.286416 -0.956105 0.061873
vn 0.286416 -0.956105 0.061873
vn -0.939664 -0.280967 0.195167
vn -0.939664 -0.280967 0.195167
vn -0.939664 -0.280967 0.195167
vn -0.939664 -0.280967 0.195167
vn -0.901753 -0.373364 -0.217809
vn -0.575379 -0.739901 -0.348548
vn -0.376850 -0.758524 0.531626
vn -0.560733 -0.536530 0.630646
vn 0.939676 -0.281078 0.194948
vn 0.939676 -0.281078 0.194948
vn 0.939676 -0.281078 0.194948
vn 0.939676 -0.281078 0.194948
vn -0.286478 -0.956084 0.061909
vn -0.286478 -0.956084 0.061909
vn -0.286478 -0.956084 0.061909
vn -0.286478 -0.956084 0.061909
vn 0.916855 0.278353 -0.286175
vn 0.804407 0.533439 -0.261481
vn -0.485826 0.629253 -0.606641
vn -0.089990 0.869608 -0.485472
vn -0.178398 0.807454 -0.562310
vn 0.485826 0.629253 -0.606641
vn -0.814936 0.210659 -0.539910
vn -0.416788 -0.447597 -0.791167
vn 0.814936 0.210659 -0.539910
vn 0.174733 0.816416 -0.550394
vn 0.514929 0.449544 -0.729903
vn 0.271379 0.476955 -0.835983
vn 0.399600 -0.313482 -0.861423
vn 0.399600 -0.313482 -0.861423
vn 0.732324 -0.259279 -0.629664
vn 0.732324 -0.259279 -0.629664
vn 0.575925 -0.739574 -0.348340
vn 0.417427 -0.447453 -0.790911
vn 0.902210 -0.372540 -0.217325
vn 0.377085 -0.758360 0.531693
vn 0.561065 -0.536132 0.630689
vn 0.186250 0.883595 0.429616
vn 0.321522 0.463856 0.825507
vn 0.580205 0.453154 0.676767
vn 0.044939 0.959928 0.276621
vn 0.086642 0.841466 0.533319
vn 0.171696 0.771771 0.612283
vn 0.091210 0.941215 0.325262
vn 0.046398 0.967148 -0.249944
vn 0.093964 0.950636 -0.295741
vn 0.090118 0.869599 -0.485464
vn 0.178650 0.807416 -0.562284
vn 0.000000 -0.143452 0.989657
vn 0.000000 -0.143452 0.989657
vn 0.000000 -0.143452 0.989657
vn 0.000000 -0.143452 0.989657
vn -0.249240 -0.588789 -0.768900
vn -0.399753 -0.290645 -0.869323
vn -0.399753 -0.290645 -0.869323
vn -0.249240 -0.588789 -0.768900
vn 0.327081 -0.071099 -0.942318
vn 0.620191 -0.092910 -0.778930
vn 0.635257 -0.223927 -0.739125
vn 0.339060 -0.163824 -0.926391
vn -0.326745 -0.071120 -0.942433
vn -0.338721 -0.163874 -0.926506
vn -0.619633 -0.092967 -0.779366
vn -0.634703 -0.224059 -0.739560
vn 0.399753 -0.290645 -0.869323
vn 0.399753 -0.290645 -0.869323
vn 0.249240 -0.588789 -0.768900
vn 0.249240 -0.588789 -0.768900
vn -0.764039 -0.593531 -0.252912
vn -0.905839 -0.313530 -0.284877
vn -0.808922 -0.241720 -0.535926
vn -0.759188 -0.600763 0.250433
vn -0.904487 -0.318054 0.284155
vn -0.806726 -0.250277 0.535308
vn 0.313609 -0.609193 0.728377
vn 0.460692 -0.303080 0.834209
vn 0.460692 -0.303080 0.834209
vn 0.313609 -0.609193 0.728377
vn -0.147046 -0.835640 0.529228
vn -0.264512 -0.550247 0.791999
vn -0.510159 -0.450646 0.732568
vn 0.264798 -0.550248 0.791902
vn 0.147247 -0.835617 0.529209
vn 0.510665 -0.450568 0.732264
vn -0.460731 -0.303107 0.834178
vn -0.460731 -0.303107 0.834178
vn -0.313678 -0.609240 0.728308
vn -0.313678 -0.609240 0.728308
vn 0.759188 -0.600763 0.250433
vn 0.904487 -0.318054 0.284155
vn 0.806726 -0.250277 0.535308
vn 0.905839 -0.313530 -0.284877
vn 0.764039 -0.593531 -0.252912
vn 0.808922 -0.241720 -0.535926
s 1
g pCube1
usemtl initialShadingGroup
f 3/3/1 48/58/2 38/48/3
s 2
f 3/3/4 38/48/5 39/49/6 22/30/7
s 3
f 5/5/8 33/43/9 43/53/10
s 4
f 50/60/11 51/61/12 12/18/13
s 5
f 46/56/14 47/57/15 15/21/16
s 6
f 6/12/17 11/17/18 41/51/19
s 7
f 21/28/20 4/4/21 12/18/22
s 8
f 4/4/23 50/60/24 12/18/25
s 9
f 3/3/26 15/21/27 47/57/28
s 10
f 3/3/29 22/29/30 15/21/31
s 11
f 5/14/32 44/54/33 16/22/34
s 12
f 7/7/35 34/44/36 35/45/37 17/23/38
s 7
f 23/32/39 21/28/20 12/18/22 11/17/40
s 2
f 22/30/7 39/49/6 40/50/41 24/34/42
s 10
f 15/21/31 22/29/30 24/33/43 16/22/44
s 5
f 45/55/45 46/56/14 15/21/16 16/22/46
s off
f 7/13/47 1/1/48 14/20/49 13/19/50
f 20/26/51 1/9/52 7/7/53 17/23/54
s 13
f 17/23/55 36/46/56 37/47/57 20/26/58
s off
f 8/8/59 2/10/60 19/25/61 18/24/62
f 10/15/63 2/2/64 8/11/65 9/16/66
s 4
f 12/18/13 51/61/12 52/62/67 11/17/68
s 7
f 6/12/69 23/32/39 11/17/40
s 2
f 24/34/42 40/50/41 33/43/70 5/5/71
s 10
f 16/22/44 24/33/43 5/14/72
s 5
f 44/54/73 45/55/45 16/22/46
s 13
f 17/23/55 35/45/74 36/46/56
s 4
f 11/17/68 52/62/67 41/51/75
s 3
f 25/35/76 6/6/77 42/52/78
s 12
f 27/37/79 26/36/80 8/8/81 18/24/82
s 13
f 28/38/83 27/37/84 18/24/85
f 29/39/86 28/38/83 18/24/85 19/25/87
s 1
f 30/40/88 49/59/89 4/4/90
s 2
f 31/41/91 30/40/92 4/4/93 21/27/94
f 32/42/95 31/41/91 21/27/94 23/31/96
f 25/35/97 32/42/95 23/31/96 6/6/98
s 3
f 33/43/9 25/35/76 42/52/78 43/53/10
s 12
f 35/45/37 34/44/36 26/36/80 27/37/79
s 13
f 36/46/56 35/45/74 27/37/84 28/38/83
f 37/47/57 36/46/56 28/38/83 29/39/86
f 20/26/58 37/47/57 29/39/86 19/25/87
s off
f 2/10/99 1/9/100 20/26/101 19/25/102
s 1
f 38/48/3 48/58/2 49/59/89 30/40/88
s 2
f 39/49/6 38/48/5 30/40/92 31/41/91
f 40/50/41 39/49/6 31/41/91 32/42/95
f 33/43/70 40/50/41 32/42/95 25/35/97
s 6
f 8/11/103 67/79/104 68/80/105 9/16/106
s 3
f 66/77/107 67/78/108 8/8/109 26/36/110
f 65/76/111 66/77/107 26/36/110 34/44/112
f 64/75/113 65/76/111 34/44/112 7/7/114
s 11
f 63/73/115 64/74/116 7/13/117 13/19/118
s 5
f 13/19/119 62/72/120 63/73/121
f 13/19/119 14/20/122 61/71/123 62/72/120
f 14/20/122 60/70/124 61/71/123
s 9
f 1/1/125 59/69/126 60/70/127 14/20/128
s 1
f 1/1/129 58/68/130 59/69/131
f 57/67/132 58/68/130 1/1/129 2/2/133
f 56/66/134 57/67/132 2/2/133
s 8
f 55/65/135 56/66/136 2/2/137 10/15/138
s 4
f 10/15/139 54/64/140 55/65/141
f 53/63/142 54/64/140 10/15/139 9/16/143
f 68/80/144 53/63/142 9/16/143
f 52/62/67 51/61/12 54/64/140 53/63/142
f 55/65/141 54/64/140 51/61/12 50/60/11
s 8
f 50/60/24 4/4/23 56/66/136 55/65/135
s 1
f 4/4/90 49/59/89 57/67/132 56/66/134
f 49/59/89 48/58/2 58/68/130 57/67/132
f 59/69/131 58/68/130 48/58/2 3/3/1
s 9
f 60/70/127 59/69/126 3/3/26 47/57/28
s 5
f 61/71/123 60/70/124 47/57/15 46/56/14
f 62/72/120 61/71/123 46/56/14 45/55/45
f 63/73/121 62/72/120 45/55/45 44/54/73
s 11
f 44/54/33 5/14/32 64/74/116 63/73/115
s 3
f 5/5/8 43/53/10 65/76/111 64/75/113
f 43/53/10 42/52/78 66/77/107 65/76/111
f 42/52/78 6/6/77 67/78/108 66/77/107
s 6
f 68/80/105 67/79/104 6/12/17 41/51/19
s 4
f 41/51/75 52/62/67 53/63/142 68/80/144
